HIERARCHY
ROOT Hips
{
	OFFSET 0.000000 0.000000 0.000000
	CHANNELS 6 Xposition Yposition Zposition Xrotation Yrotation Zrotation
	JOINT LeftUpLeg_virtual
	{
		OFFSET 0.000000 0.000000 0.000000
		CHANNELS 3 Xrotation Yrotation Zrotation
		JOINT LeftUpLeg
		{
			OFFSET 10.205400 -3.823500 0.155100
			CHANNELS 3 Xrotation Yrotation Zrotation
			JOINT LeftLeg
			{
				OFFSET 0.708757 -12.982077 0.567790
				CHANNELS 3 Xrotation Yrotation Zrotation
				JOINT LeftFoot
				{
					OFFSET -0.708756 -10.717838 -2.184338
					CHANNELS 3 Xrotation Yrotation Zrotation
					JOINT LeftToeBase
					{
						OFFSET 0.108149 -7.191104 7.560241
						CHANNELS 3 Xrotation Yrotation Zrotation
						JOINT LeftToe_End
						{
							OFFSET 0.070230 0.081724 4.490308
							CHANNELS 3 Xrotation Yrotation Zrotation
							End Site
							{
								OFFSET 0 0 0
							}
						}
					}
				}
			}
		}
	}
	JOINT RightUpLeg_virtual
	{
		OFFSET 0.000000 0.000000 0.000000
		CHANNELS 3 Xrotation Yrotation Zrotation
		JOINT RightUpLeg
		{
			OFFSET -10.205400 -3.823500 0.005500
			CHANNELS 3 Xrotation Yrotation Zrotation
			JOINT RightLeg
			{
				OFFSET -0.708756 -12.982134 0.610632
				CHANNELS 3 Xrotation Yrotation Zrotation
				JOINT RightFoot
				{
					OFFSET 0.708754 -10.717769 -1.945823
					CHANNELS 3 Xrotation Yrotation Zrotation
					JOINT RightToeBase
					{
						OFFSET -0.108140 -7.191069 7.372968
						CHANNELS 3 Xrotation Yrotation Zrotation
						JOINT RightToe_End
						{
							OFFSET -0.070227 0.081735 4.479403
							CHANNELS 3 Xrotation Yrotation Zrotation
							End Site
							{
								OFFSET 0 0 0
							}
						}
					}
				}
			}
		}
	}
	JOINT Spine_virtual
	{
		OFFSET 0.000000 0.000000 0.000000
		CHANNELS 3 Xrotation Yrotation Zrotation
		JOINT Spine
		{
			OFFSET 0.000000 6.876099 0.125700
			CHANNELS 3 Xrotation Yrotation Zrotation
			JOINT Spine1
			{
				OFFSET 0.000000 5.730043 0.104720
				CHANNELS 3 Xrotation Yrotation Zrotation
				JOINT Spine1_split
				{
					OFFSET 0.000000 5.730043 0.104720
					CHANNELS 3 Xrotation Yrotation Zrotation
					JOINT Spine2
					{
						OFFSET 0.000000 5.730043 0.104720
						CHANNELS 3 Xrotation Yrotation Zrotation
						JOINT Neck_virtual
						{
							OFFSET 0.000000 0.000000 0.000000
							CHANNELS 3 Xrotation Yrotation Zrotation
							JOINT Neck
							{
								OFFSET 0.000000 10.314075 0.188496
								CHANNELS 3 Xrotation Yrotation Zrotation
								JOINT Head
								{
									OFFSET 0.000000 7.643700 -2.377400
									CHANNELS 3 Xrotation Yrotation Zrotation
									JOINT HeadTop_End
									{
										OFFSET 0.000000 43.788605 -13.619600
										CHANNELS 3 Xrotation Yrotation Zrotation
										End Site
										{
											OFFSET 0 0 0
										}
									}
								}
							}
						}
						JOINT LeftShoulder_virtual
						{
							OFFSET 0.000000 0.000000 0.000000
							CHANNELS 3 Xrotation Yrotation Zrotation
							JOINT LeftShoulder
							{
								OFFSET 2.196100 4.412489 0.087492
								CHANNELS 3 Xrotation Yrotation Zrotation
								JOINT LeftShoulder_split
								{
									OFFSET 2.196100 4.412489 0.087492
									CHANNELS 3 Xrotation Yrotation Zrotation
									JOINT LeftArm
									{
										OFFSET 8.771219 -2.981674 -0.026999
										CHANNELS 3 Xrotation Yrotation Zrotation
										JOINT LeftForeArm
										{
											OFFSET 8.512804 0.000000 -0.000000
											CHANNELS 3 Xrotation Yrotation Zrotation
											JOINT LeftHand
											{
												OFFSET 18.484802 0.000000 -0.000000
												CHANNELS 3 Xrotation Yrotation Zrotation
												End Site
												{
													OFFSET 0 0 0
												}
											}
										}
									}
								}
							}
						}
						JOINT RightShoulder_virtual
						{
							OFFSET 0.000000 0.000000 0.000000
							CHANNELS 3 Xrotation Yrotation Zrotation
							JOINT RightShoulder
							{
								OFFSET -2.196100 4.412496 0.070690
								CHANNELS 3 Xrotation Yrotation Zrotation
								JOINT RightShoulder_split
								{
									OFFSET -2.196100 4.412496 0.070690
									CHANNELS 3 Xrotation Yrotation Zrotation
									JOINT RightArm
									{
										OFFSET -8.771282 -2.981682 -0.094208
										CHANNELS 3 Xrotation Yrotation Zrotation
										JOINT RightForeArm
										{
											OFFSET -8.494598 0.000000 0.000000
											CHANNELS 3 Xrotation Yrotation Zrotation
											JOINT RightHand
											{
												OFFSET -18.483803 0.000000 0.000001
												CHANNELS 3 Xrotation Yrotation Zrotation
												End Site
												{
													OFFSET 0 0 0
												}
											}
										}
									}
								}
							}
						}
					}
				}
			}
		}
	}
}
MOTION
Frames: 7
Frame Time: 0.03333333
0.101239 33.147579 -0.933588 0.000000 0.000000 0.000000 1.892237 0.301107 -0.234421 -10.441641 -6.821108 14.640270 25.088822 -2.676318 -4.572713 -13.639101 16.410424 -10.555735 -0.022028 0.000003 -0.000003 0.000000 0.000000 0.000000 1.892237 0.301107 -0.234421 -6.720705 -3.807092 -13.813679 24.380987 2.677203 1.610273 -17.441860 -13.754447 10.543648 0.109672 -0.000016 0.000005 0.000000 0.000000 0.000000 1.892237 0.301107 -0.234421 2.071407 0.264369 0.909424 3.430437 -0.015269 0.185037 0.000000 0.000000 0.000000 0.000000 0.000000 0.000000 3.430498 0.005499 0.178976 -3.527215 -0.012947 -0.020364 -2.723221 -0.263049 0.289011 0.000000 0.000000 0.000000 3.430498 0.005499 0.178976 0.742832 8.952354 -13.053718 0.000000 0.000000 0.000000 10.740852 -6.252039 -54.033835 -0.000009 -33.005912 0.000001 0.000000 0.000000 0.000000 3.430498 0.005499 0.178976 1.078064 -8.352861 11.371695 0.000000 0.000000 0.000000 3.407867 18.890978 61.317327 -0.000005 23.538790 0.000001 0.000000 0.000000 0.000000 
0.447802 33.071812 -0.917421 0.000000 0.000000 0.000000 2.046940 0.090906 -0.210449 -12.147834 -6.183416 14.140128 27.016458 -3.084682 -4.350277 -14.586313 14.273332 -10.050628 -0.007610 0.000003 0.000002 0.000000 0.000000 0.000000 2.046940 0.090906 -0.210449 -7.069108 -3.597515 -14.773914 24.417226 2.969951 1.682712 -17.106675 -13.848075 11.337712 0.092234 -0.000003 -0.000002 0.000000 0.000000 0.000000 2.046940 0.090906 -0.210449 2.392063 0.000017 0.837562 3.299833 -0.080446 0.171142 0.000000 0.000000 0.000000 0.000000 0.000000 0.000000 3.300176 -0.060740 0.166296 -3.396148 0.002399 -0.020364 -2.286794 -0.182576 0.481419 0.000000 0.000000 0.000000 3.300176 -0.060740 0.166296 0.729735 8.312041 -13.050103 0.000000 0.000000 0.000000 10.192954 -6.689428 -54.453051 -0.000007 -32.826555 -0.000014 0.000000 0.000000 0.000000 3.300176 -0.060740 0.166296 1.124663 -7.724683 11.847095 0.000000 0.000000 0.000000 3.010272 18.678494 60.639779 -0.000009 22.673033 -0.000005 0.000000 0.000000 0.000000 
0.798891 32.995552 -0.925468 0.000000 0.000000 0.000000 2.192028 -0.103500 -0.182934 -13.963327 -5.510176 13.735171 28.819679 -3.579157 -4.216743 -15.318770 11.869304 -9.505388 -0.000024 -0.000003 0.000004 0.000000 0.000000 0.000000 2.192028 -0.103500 -0.182934 -7.475137 -3.395651 -15.737196 24.466521 3.247671 1.737301 -16.717136 -13.919121 12.128212 0.047625 -0.000002 0.000008 0.000000 0.000000 0.000000 2.192028 -0.103500 -0.182934 2.733197 -0.264790 0.747382 3.162681 -0.145143 0.154605 0.000000 0.000000 0.000000 0.000000 0.000000 0.000000 3.163290 -0.126561 0.150961 -3.268991 0.018849 -0.018577 -1.887780 -0.058102 0.630191 0.000000 0.000000 0.000000 3.163290 -0.126561 0.150961 0.717571 7.653004 -13.047670 0.000000 0.000000 0.000000 9.666110 -7.152683 -54.905507 0.000005 -32.583206 0.000008 0.000000 0.000000 0.000000 3.163290 -0.126561 0.150961 1.162526 -7.068621 12.335795 0.000000 0.000000 0.000000 2.566470 18.497479 59.924221 0.000000 21.753113 -0.000008 0.000000 0.000000 0.000000 
1.150161 32.921913 -0.948557 0.000000 0.000000 0.000000 2.331668 -0.289213 -0.153791 -15.740659 -4.863073 13.377277 30.481239 -3.969973 -4.183830 -15.888097 9.380549 -8.926851 -0.000104 -0.000001 0.000002 0.000000 0.000000 0.000000 2.331668 -0.289213 -0.153791 -7.880280 -3.185704 -16.686140 24.447069 3.500784 1.782686 -16.249766 -13.982444 12.918114 -0.029133 -0.000000 0.000001 0.000000 0.000000 0.000000 2.331668 -0.289213 -0.153791 3.092822 -0.529532 0.642459 3.019495 -0.209397 0.135643 0.000000 0.000000 0.000000 0.000000 0.000000 0.000000 3.020388 -0.191999 0.133191 -3.147345 0.036363 -0.015829 -1.597550 0.081102 0.805939 0.000000 0.000000 0.000000 3.020388 -0.191999 0.133191 0.706291 6.977571 -13.045937 0.000000 0.000000 0.000000 9.162099 -7.642063 -55.387445 0.000014 -32.283989 0.000001 0.000000 0.000000 0.000000 3.020388 -0.191999 0.133191 1.190445 -6.388123 12.835376 0.000000 0.000000 0.000000 2.074941 18.347869 59.179450 0.000016 20.785831 -0.000012 0.000000 0.000000 0.000000 
1.497359 32.855057 -0.976843 0.000000 0.000000 0.000000 2.470032 -0.473370 -0.124041 -17.320557 -4.371552 12.954477 31.991954 -4.146129 -4.185494 -16.372592 7.172703 -8.338405 -0.000037 -0.000002 -0.000000 0.000000 0.000000 0.000000 2.470032 -0.473370 -0.124041 -8.224026 -2.961137 -17.602149 24.267889 3.723569 1.813921 -15.667867 -14.050152 13.728637 -0.075394 -0.000002 0.000005 0.000000 0.000000 0.000000 2.470032 -0.473370 -0.124041 3.464700 -0.793584 0.528387 2.872159 -0.273349 0.115018 0.000000 0.000000 0.000000 0.000000 0.000000 0.000000 2.873325 -0.257173 0.113749 -3.032919 0.054683 -0.010930 -1.496474 0.185064 1.081118 0.000000 0.000000 0.000000 2.873325 -0.257173 0.113749 0.695810 6.292042 -13.043701 0.000000 0.000000 0.000000 8.675588 -8.144779 -55.892350 0.000004 -31.950368 0.000011 0.000000 0.000000 0.000000 2.873325 -0.257173 0.113749 1.207315 -5.692446 13.339838 0.000000 0.000000 0.000000 1.540407 18.224772 58.423888 -0.000003 19.789447 0.000020 0.000000 0.000000 0.000000 
1.836272 32.799862 -1.000671 0.000000 0.000000 0.000000 2.611313 -0.663181 -0.094368 -18.540718 -4.192332 12.346719 33.340909 -4.019082 -4.163307 -16.871412 5.663417 -7.758805 -0.000090 0.000000 -0.000001 0.000000 0.000000 0.000000 2.611313 -0.663181 -0.094368 -8.479747 -2.826369 -18.476341 23.829113 4.002395 1.793407 -14.924011 -14.121884 14.578127 -0.141062 -0.000014 -0.000003 0.000000 0.000000 0.000000 2.611313 -0.663181 -0.094368 3.843896 -1.056245 0.409673 2.722170 -0.337109 0.093338 0.000000 0.000000 0.000000 0.000000 0.000000 0.000000 2.723597 -0.322181 0.093248 -2.917188 0.071472 0.002981 -1.617539 0.268029 1.439714 0.000000 0.000000 0.000000 2.723597 -0.322181 0.093248 0.686057 5.601590 -13.040055 0.000000 0.000000 0.000000 8.202255 -8.650299 -56.414753 -0.000005 -31.600164 0.000006 0.000000 0.000000 0.000000 2.723597 -0.322181 0.093248 1.212581 -4.989260 13.844378 0.000000 0.000000 0.000000 0.968225 18.123576 57.672027 -0.000007 18.779025 -0.000003 0.000000 0.000000 0.000000 
2.153926 32.753361 -1.002825 0.000000 0.000000 0.000000 2.759680 -0.867199 -0.060601 -19.274341 -4.328049 11.532546 34.564401 -3.479812 -4.106948 -17.533439 5.053695 -7.228470 -0.000103 -0.000000 0.000001 0.000000 0.000000 0.000000 2.759680 -0.867199 -0.060601 -9.100161 -2.604869 -19.377803 23.891011 4.432303 1.804381 -13.937980 -14.105552 15.431455 -0.739880 0.000004 -0.000002 0.000000 0.000000 0.000000 2.759680 -0.867199 -0.060601 4.225953 -1.315798 0.285589 2.570874 -0.400774 0.071151 0.000000 0.000000 0.000000 0.000000 0.000000 0.000000 2.572565 -0.387109 0.072237 -2.786704 0.087455 0.018050 -1.846070 0.367249 1.808228 0.000000 0.000000 0.000000 2.572565 -0.387109 0.072237 0.677019 4.910973 -13.034246 0.000000 0.000000 0.000000 7.738131 -9.148993 -56.949656 -0.000000 -31.249649 -0.000016 0.000000 0.000000 0.000000 2.572565 -0.387109 0.072237 1.206172 -4.285656 14.344700 0.000000 0.000000 0.000000 0.364930 18.039300 56.936378 -0.000007 17.768327 -0.000002 0.000000 0.000000 0.000000 
